<mxfile host="app.diagrams.net" agent="Mozilla/5.0 (Windows NT 10.0; Win64; x64) AppleWebKit/537.36 (KHTML, like Gecko) Chrome/141.0.0.0 Safari/537.36 Edg/141.0.0.0" version="28.2.5">
  <diagram name="หน้า-1" id="iyeWfXE37BUiLayl78tm">
    <mxGraphModel dx="1479" dy="1496" grid="1" gridSize="10" guides="1" tooltips="1" connect="1" arrows="1" fold="1" page="1" pageScale="1" pageWidth="827" pageHeight="1169" math="0" shadow="0">
      <root>
        <mxCell id="0" />
        <mxCell id="1" parent="0" />
        <mxCell id="PciMP8UfImaqRbxWOPs4-1" value="Formulas&amp;nbsp;" style="rounded=0;whiteSpace=wrap;html=1;" parent="1" vertex="1">
          <mxGeometry x="590" y="470" width="120" height="60" as="geometry" />
        </mxCell>
        <mxCell id="PciMP8UfImaqRbxWOPs4-2" value="QCResults&amp;nbsp;" style="rounded=0;whiteSpace=wrap;html=1;" parent="1" vertex="1">
          <mxGeometry x="-315" y="470" width="120" height="60" as="geometry" />
        </mxCell>
        <mxCell id="PciMP8UfImaqRbxWOPs4-3" value="" style="rounded=0;whiteSpace=wrap;html=1;" parent="1" vertex="1">
          <mxGeometry x="590" y="250" width="120" height="60" as="geometry" />
        </mxCell>
        <mxCell id="PciMP8UfImaqRbxWOPs4-4" value="SalesOrderDetails&amp;nbsp;" style="rounded=0;whiteSpace=wrap;html=1;" parent="1" vertex="1">
          <mxGeometry x="225" y="700" width="120" height="60" as="geometry" />
        </mxCell>
        <mxCell id="PciMP8UfImaqRbxWOPs4-5" value="" style="rounded=0;whiteSpace=wrap;html=1;" parent="1" vertex="1">
          <mxGeometry x="250" y="40" width="120" height="60" as="geometry" />
        </mxCell>
        <mxCell id="PciMP8UfImaqRbxWOPs4-6" value="QCTests&amp;nbsp;" style="rounded=0;whiteSpace=wrap;html=1;" parent="1" vertex="1">
          <mxGeometry x="-520" y="640" width="120" height="60" as="geometry" />
        </mxCell>
        <mxCell id="PciMP8UfImaqRbxWOPs4-7" value="ProductionBatches&amp;nbsp;" style="rounded=0;whiteSpace=wrap;html=1;" parent="1" vertex="1">
          <mxGeometry x="-145" y="265" width="120" height="60" as="geometry" />
        </mxCell>
        <mxCell id="PciMP8UfImaqRbxWOPs4-8" value="SalesOrders&amp;nbsp;" style="rounded=0;whiteSpace=wrap;html=1;" parent="1" vertex="1">
          <mxGeometry x="225" y="920" width="120" height="60" as="geometry" />
        </mxCell>
        <mxCell id="PciMP8UfImaqRbxWOPs4-9" value="PurchaseOrders&amp;nbsp;" style="rounded=0;whiteSpace=wrap;html=1;" parent="1" vertex="1">
          <mxGeometry x="-85" y="40" width="120" height="60" as="geometry" />
        </mxCell>
        <mxCell id="PciMP8UfImaqRbxWOPs4-10" value="Products&amp;nbsp;" style="rounded=0;whiteSpace=wrap;html=1;" parent="1" vertex="1">
          <mxGeometry x="225" y="470" width="120" height="60" as="geometry" />
        </mxCell>
        <mxCell id="PciMP8UfImaqRbxWOPs4-11" value="Suppliers&amp;nbsp;" style="rounded=0;whiteSpace=wrap;html=1;" parent="1" vertex="1">
          <mxGeometry x="-520" y="40" width="120" height="60" as="geometry" />
        </mxCell>
        <mxCell id="PciMP8UfImaqRbxWOPs4-12" value="RawMaterials&amp;nbsp;" style="rounded=0;whiteSpace=wrap;html=1;" parent="1" vertex="1">
          <mxGeometry x="590" y="40" width="120" height="60" as="geometry" />
        </mxCell>
        <mxCell id="PciMP8UfImaqRbxWOPs4-13" value="Customers&amp;nbsp;" style="rounded=0;whiteSpace=wrap;html=1;" parent="1" vertex="1">
          <mxGeometry x="575" y="920" width="120" height="60" as="geometry" />
        </mxCell>
        <mxCell id="PciMP8UfImaqRbxWOPs4-14" value="" style="endArrow=ERzeroToMany;html=1;rounded=0;exitX=1;exitY=0.5;exitDx=0;exitDy=0;entryX=0;entryY=0.5;entryDx=0;entryDy=0;endFill=0;" parent="1" source="PciMP8UfImaqRbxWOPs4-15" target="PciMP8UfImaqRbxWOPs4-9" edge="1">
          <mxGeometry width="50" height="50" relative="1" as="geometry">
            <mxPoint x="75" y="-130" as="sourcePoint" />
            <mxPoint x="125" y="-180" as="targetPoint" />
          </mxGeometry>
        </mxCell>
        <mxCell id="PciMP8UfImaqRbxWOPs4-15" value="place" style="rhombus;whiteSpace=wrap;html=1;" parent="1" vertex="1">
          <mxGeometry x="-290" y="30" width="80" height="80" as="geometry" />
        </mxCell>
        <mxCell id="PciMP8UfImaqRbxWOPs4-17" value="" style="endArrow=ERmandOne;html=1;rounded=0;exitX=1;exitY=0.5;exitDx=0;exitDy=0;entryX=0;entryY=0.5;entryDx=0;entryDy=0;endFill=0;" parent="1" source="PciMP8UfImaqRbxWOPs4-18" target="PciMP8UfImaqRbxWOPs4-13" edge="1">
          <mxGeometry width="50" height="50" relative="1" as="geometry">
            <mxPoint x="405" y="980" as="sourcePoint" />
            <mxPoint x="455" y="930" as="targetPoint" />
          </mxGeometry>
        </mxCell>
        <mxCell id="PciMP8UfImaqRbxWOPs4-19" value="" style="endArrow=none;html=1;rounded=0;exitX=1;exitY=0.5;exitDx=0;exitDy=0;entryX=0;entryY=0.5;entryDx=0;entryDy=0;startArrow=ERzeroToMany;startFill=0;" parent="1" source="PciMP8UfImaqRbxWOPs4-8" target="PciMP8UfImaqRbxWOPs4-18" edge="1">
          <mxGeometry width="50" height="50" relative="1" as="geometry">
            <mxPoint x="355" y="950" as="sourcePoint" />
            <mxPoint x="575" y="950" as="targetPoint" />
          </mxGeometry>
        </mxCell>
        <mxCell id="PciMP8UfImaqRbxWOPs4-18" value="place" style="rhombus;whiteSpace=wrap;html=1;" parent="1" vertex="1">
          <mxGeometry x="425" y="910" width="80" height="80" as="geometry" />
        </mxCell>
        <mxCell id="PciMP8UfImaqRbxWOPs4-20" value="" style="endArrow=ERzeroToMany;html=1;rounded=0;exitX=1;exitY=0.5;exitDx=0;exitDy=0;entryX=0;entryY=0.5;entryDx=0;entryDy=0;endFill=0;" parent="1" source="PciMP8UfImaqRbxWOPs4-21" target="PciMP8UfImaqRbxWOPs4-1" edge="1">
          <mxGeometry width="50" height="50" relative="1" as="geometry">
            <mxPoint x="475" y="490" as="sourcePoint" />
            <mxPoint x="525" y="440" as="targetPoint" />
          </mxGeometry>
        </mxCell>
        <mxCell id="PciMP8UfImaqRbxWOPs4-22" value="" style="endArrow=none;html=1;rounded=0;exitX=1;exitY=0.5;exitDx=0;exitDy=0;entryX=0;entryY=0.5;entryDx=0;entryDy=0;startArrow=ERmandOne;startFill=0;" parent="1" source="PciMP8UfImaqRbxWOPs4-10" target="PciMP8UfImaqRbxWOPs4-21" edge="1">
          <mxGeometry width="50" height="50" relative="1" as="geometry">
            <mxPoint x="345" y="500" as="sourcePoint" />
            <mxPoint x="575" y="500" as="targetPoint" />
          </mxGeometry>
        </mxCell>
        <mxCell id="PciMP8UfImaqRbxWOPs4-21" value="has" style="rhombus;whiteSpace=wrap;html=1;" parent="1" vertex="1">
          <mxGeometry x="425" y="460" width="80" height="80" as="geometry" />
        </mxCell>
        <mxCell id="PciMP8UfImaqRbxWOPs4-24" value="" style="endArrow=ERmandOne;html=1;rounded=0;entryX=0.5;entryY=0;entryDx=0;entryDy=0;endFill=0;exitX=0.5;exitY=1;exitDx=0;exitDy=0;" parent="1" source="PciMP8UfImaqRbxWOPs4-23" target="PciMP8UfImaqRbxWOPs4-10" edge="1">
          <mxGeometry width="50" height="50" relative="1" as="geometry">
            <mxPoint x="265" y="420" as="sourcePoint" />
            <mxPoint x="425" y="700" as="targetPoint" />
          </mxGeometry>
        </mxCell>
        <mxCell id="PciMP8UfImaqRbxWOPs4-25" value="" style="endArrow=none;html=1;rounded=0;entryX=0;entryY=0.5;entryDx=0;entryDy=0;exitX=1;exitY=0.5;exitDx=0;exitDy=0;startArrow=ERzeroToMany;startFill=0;" parent="1" source="PciMP8UfImaqRbxWOPs4-7" target="PciMP8UfImaqRbxWOPs4-23" edge="1">
          <mxGeometry width="50" height="50" relative="1" as="geometry">
            <mxPoint x="285" y="715" as="sourcePoint" />
            <mxPoint x="285" y="530" as="targetPoint" />
          </mxGeometry>
        </mxCell>
        <mxCell id="PciMP8UfImaqRbxWOPs4-23" value="is_produced_in" style="rhombus;whiteSpace=wrap;html=1;" parent="1" vertex="1">
          <mxGeometry x="232.5" y="240" width="105" height="110" as="geometry" />
        </mxCell>
        <mxCell id="PciMP8UfImaqRbxWOPs4-26" value="" style="endArrow=ERzeroToMany;html=1;rounded=0;entryX=0;entryY=0.5;entryDx=0;entryDy=0;exitX=1;exitY=0.5;exitDx=0;exitDy=0;endFill=0;" parent="1" source="PciMP8UfImaqRbxWOPs4-27" target="PciMP8UfImaqRbxWOPs4-2" edge="1">
          <mxGeometry width="50" height="50" relative="1" as="geometry">
            <mxPoint x="-575" y="540" as="sourcePoint" />
            <mxPoint x="-555" y="450" as="targetPoint" />
          </mxGeometry>
        </mxCell>
        <mxCell id="PciMP8UfImaqRbxWOPs4-28" value="" style="endArrow=none;html=1;rounded=0;entryX=0.5;entryY=1;entryDx=0;entryDy=0;exitX=0.5;exitY=0;exitDx=0;exitDy=0;startArrow=ERmandOne;startFill=0;" parent="1" source="PciMP8UfImaqRbxWOPs4-6" target="PciMP8UfImaqRbxWOPs4-27" edge="1">
          <mxGeometry width="50" height="50" relative="1" as="geometry">
            <mxPoint x="-605" y="500" as="sourcePoint" />
            <mxPoint x="-315" y="500" as="targetPoint" />
          </mxGeometry>
        </mxCell>
        <mxCell id="PciMP8UfImaqRbxWOPs4-27" value="is_performed_in" style="rhombus;whiteSpace=wrap;html=1;" parent="1" vertex="1">
          <mxGeometry x="-515" y="445" width="110" height="110" as="geometry" />
        </mxCell>
        <mxCell id="PciMP8UfImaqRbxWOPs4-30" value="" style="endArrow=ERmandOne;html=1;rounded=0;exitX=0.5;exitY=0;exitDx=0;exitDy=0;entryX=0.5;entryY=1;entryDx=0;entryDy=0;endFill=0;" parent="1" source="PciMP8UfImaqRbxWOPs4-29" target="PciMP8UfImaqRbxWOPs4-7" edge="1">
          <mxGeometry width="50" height="50" relative="1" as="geometry">
            <mxPoint x="-85" y="560" as="sourcePoint" />
            <mxPoint x="-35" y="510" as="targetPoint" />
          </mxGeometry>
        </mxCell>
        <mxCell id="PciMP8UfImaqRbxWOPs4-31" value="" style="endArrow=none;html=1;rounded=0;exitX=1;exitY=0.5;exitDx=0;exitDy=0;entryX=0;entryY=0.5;entryDx=0;entryDy=0;startArrow=ERoneToMany;startFill=0;" parent="1" source="PciMP8UfImaqRbxWOPs4-2" target="PciMP8UfImaqRbxWOPs4-29" edge="1">
          <mxGeometry width="50" height="50" relative="1" as="geometry">
            <mxPoint x="-195" y="500" as="sourcePoint" />
            <mxPoint x="45" y="500" as="targetPoint" />
          </mxGeometry>
        </mxCell>
        <mxCell id="PciMP8UfImaqRbxWOPs4-29" value="is_tested_by" style="rhombus;whiteSpace=wrap;html=1;" parent="1" vertex="1">
          <mxGeometry x="-135" y="450" width="100" height="100" as="geometry" />
        </mxCell>
        <mxCell id="PciMP8UfImaqRbxWOPs4-35" value="" style="endArrow=none;html=1;rounded=0;entryX=0;entryY=0.5;entryDx=0;entryDy=0;exitX=1;exitY=0.5;exitDx=0;exitDy=0;" parent="1" source="PciMP8UfImaqRbxWOPs4-11" target="PciMP8UfImaqRbxWOPs4-15" edge="1">
          <mxGeometry width="50" height="50" relative="1" as="geometry">
            <mxPoint x="-375" y="120" as="sourcePoint" />
            <mxPoint x="-325" y="70" as="targetPoint" />
          </mxGeometry>
        </mxCell>
        <mxCell id="PciMP8UfImaqRbxWOPs4-43" value="" style="endArrow=ERoneToMany;html=1;rounded=0;exitX=1;exitY=0.5;exitDx=0;exitDy=0;entryX=0;entryY=0.5;entryDx=0;entryDy=0;endFill=0;" parent="1" source="PciMP8UfImaqRbxWOPs4-46" target="PciMP8UfImaqRbxWOPs4-5" edge="1">
          <mxGeometry width="50" height="50" relative="1" as="geometry">
            <mxPoint x="330" y="120" as="sourcePoint" />
            <mxPoint x="380" y="70" as="targetPoint" />
          </mxGeometry>
        </mxCell>
        <mxCell id="PciMP8UfImaqRbxWOPs4-44" value="" style="endArrow=ERmandOne;html=1;rounded=0;entryX=0;entryY=0.5;entryDx=0;entryDy=0;exitX=1;exitY=0.5;exitDx=0;exitDy=0;endFill=0;" parent="1" source="PciMP8UfImaqRbxWOPs4-32" target="PciMP8UfImaqRbxWOPs4-12" edge="1">
          <mxGeometry width="50" height="50" relative="1" as="geometry">
            <mxPoint x="330" y="120" as="sourcePoint" />
            <mxPoint x="380" y="70" as="targetPoint" />
          </mxGeometry>
        </mxCell>
        <mxCell id="PciMP8UfImaqRbxWOPs4-45" value="" style="endArrow=none;html=1;rounded=0;entryX=0;entryY=0.5;entryDx=0;entryDy=0;exitX=1;exitY=0.5;exitDx=0;exitDy=0;startArrow=ERoneToMany;startFill=0;" parent="1" source="PciMP8UfImaqRbxWOPs4-5" target="PciMP8UfImaqRbxWOPs4-32" edge="1">
          <mxGeometry width="50" height="50" relative="1" as="geometry">
            <mxPoint x="370" y="70" as="sourcePoint" />
            <mxPoint x="590" y="70" as="targetPoint" />
          </mxGeometry>
        </mxCell>
        <mxCell id="PciMP8UfImaqRbxWOPs4-32" value="ordered" style="rhombus;whiteSpace=wrap;html=1;" parent="1" vertex="1">
          <mxGeometry x="440" y="30" width="80" height="80" as="geometry" />
        </mxCell>
        <mxCell id="PciMP8UfImaqRbxWOPs4-47" value="" style="endArrow=none;html=1;rounded=0;exitX=1;exitY=0.5;exitDx=0;exitDy=0;entryX=0;entryY=0.5;entryDx=0;entryDy=0;startArrow=ERmandOne;startFill=0;" parent="1" source="PciMP8UfImaqRbxWOPs4-9" target="PciMP8UfImaqRbxWOPs4-46" edge="1">
          <mxGeometry width="50" height="50" relative="1" as="geometry">
            <mxPoint x="35" y="70" as="sourcePoint" />
            <mxPoint x="250" y="70" as="targetPoint" />
          </mxGeometry>
        </mxCell>
        <mxCell id="PciMP8UfImaqRbxWOPs4-46" value="ordered" style="rhombus;whiteSpace=wrap;html=1;" parent="1" vertex="1">
          <mxGeometry x="105" y="30" width="80" height="80" as="geometry" />
        </mxCell>
        <mxCell id="PciMP8UfImaqRbxWOPs4-48" value="Purchase&lt;div&gt;OrderDetails&amp;nbsp;&lt;/div&gt;" style="rhombus;whiteSpace=wrap;html=1;" parent="1" vertex="1">
          <mxGeometry x="250" y="40" width="120" height="60" as="geometry" />
        </mxCell>
        <mxCell id="PciMP8UfImaqRbxWOPs4-52" value="" style="endArrow=ERmandOne;html=1;rounded=0;exitX=0.5;exitY=1;exitDx=0;exitDy=0;entryX=0.5;entryY=0;entryDx=0;entryDy=0;endFill=0;" parent="1" source="PciMP8UfImaqRbxWOPs4-51" target="PciMP8UfImaqRbxWOPs4-1" edge="1">
          <mxGeometry width="50" height="50" relative="1" as="geometry">
            <mxPoint x="540" y="400" as="sourcePoint" />
            <mxPoint x="590" y="350" as="targetPoint" />
          </mxGeometry>
        </mxCell>
        <mxCell id="PciMP8UfImaqRbxWOPs4-53" value="" style="endArrow=none;html=1;rounded=0;exitX=0.5;exitY=1;exitDx=0;exitDy=0;entryX=0.5;entryY=0;entryDx=0;entryDy=0;startArrow=ERoneToMany;startFill=0;" parent="1" source="PciMP8UfImaqRbxWOPs4-3" target="PciMP8UfImaqRbxWOPs4-51" edge="1">
          <mxGeometry width="50" height="50" relative="1" as="geometry">
            <mxPoint x="650" y="310" as="sourcePoint" />
            <mxPoint x="650" y="470" as="targetPoint" />
          </mxGeometry>
        </mxCell>
        <mxCell id="PciMP8UfImaqRbxWOPs4-51" value="have" style="rhombus;whiteSpace=wrap;html=1;" parent="1" vertex="1">
          <mxGeometry x="610" y="350" width="80" height="80" as="geometry" />
        </mxCell>
        <mxCell id="PciMP8UfImaqRbxWOPs4-54" value="" style="endArrow=ERzeroToMany;html=1;rounded=0;exitX=0.5;exitY=1;exitDx=0;exitDy=0;entryX=0.5;entryY=0;entryDx=0;entryDy=0;endFill=0;" parent="1" source="PciMP8UfImaqRbxWOPs4-36" target="PciMP8UfImaqRbxWOPs4-3" edge="1">
          <mxGeometry width="50" height="50" relative="1" as="geometry">
            <mxPoint x="690" y="210" as="sourcePoint" />
            <mxPoint x="740" y="160" as="targetPoint" />
          </mxGeometry>
        </mxCell>
        <mxCell id="PciMP8UfImaqRbxWOPs4-55" value="" style="endArrow=none;html=1;rounded=0;exitX=0.5;exitY=1;exitDx=0;exitDy=0;entryX=0.5;entryY=0;entryDx=0;entryDy=0;startArrow=ERmandOne;startFill=0;" parent="1" source="PciMP8UfImaqRbxWOPs4-12" target="PciMP8UfImaqRbxWOPs4-36" edge="1">
          <mxGeometry width="50" height="50" relative="1" as="geometry">
            <mxPoint x="650" y="100" as="sourcePoint" />
            <mxPoint x="650" y="250" as="targetPoint" />
          </mxGeometry>
        </mxCell>
        <mxCell id="PciMP8UfImaqRbxWOPs4-36" value="requires" style="rhombus;whiteSpace=wrap;html=1;" parent="1" vertex="1">
          <mxGeometry x="610" y="130" width="80" height="80" as="geometry" />
        </mxCell>
        <mxCell id="PciMP8UfImaqRbxWOPs4-56" value="FormulaDetails&amp;nbsp;" style="rhombus;whiteSpace=wrap;html=1;" parent="1" vertex="1">
          <mxGeometry x="590" y="250" width="120" height="60" as="geometry" />
        </mxCell>
        <mxCell id="PciMP8UfImaqRbxWOPs4-59" value="" style="endArrow=ERmandOne;html=1;rounded=0;entryX=0.5;entryY=1;entryDx=0;entryDy=0;exitX=0.5;exitY=0;exitDx=0;exitDy=0;endFill=0;" parent="1" source="PciMP8UfImaqRbxWOPs4-40" target="PciMP8UfImaqRbxWOPs4-10" edge="1">
          <mxGeometry width="50" height="50" relative="1" as="geometry">
            <mxPoint x="210" y="700" as="sourcePoint" />
            <mxPoint x="260" y="650" as="targetPoint" />
          </mxGeometry>
        </mxCell>
        <mxCell id="PciMP8UfImaqRbxWOPs4-60" value="" style="endArrow=none;html=1;rounded=0;entryX=0.5;entryY=1;entryDx=0;entryDy=0;exitX=0.5;exitY=0;exitDx=0;exitDy=0;startArrow=ERoneToMany;startFill=0;" parent="1" source="PciMP8UfImaqRbxWOPs4-4" target="PciMP8UfImaqRbxWOPs4-40" edge="1">
          <mxGeometry width="50" height="50" relative="1" as="geometry">
            <mxPoint x="285" y="700" as="sourcePoint" />
            <mxPoint x="285" y="530" as="targetPoint" />
          </mxGeometry>
        </mxCell>
        <mxCell id="PciMP8UfImaqRbxWOPs4-40" value="contains" style="rhombus;whiteSpace=wrap;html=1;" parent="1" vertex="1">
          <mxGeometry x="245" y="580" width="80" height="80" as="geometry" />
        </mxCell>
        <mxCell id="PciMP8UfImaqRbxWOPs4-61" value="" style="endArrow=ERoneToMany;html=1;rounded=0;entryX=0.5;entryY=1;entryDx=0;entryDy=0;exitX=0.5;exitY=0;exitDx=0;exitDy=0;endFill=0;" parent="1" source="PciMP8UfImaqRbxWOPs4-58" target="PciMP8UfImaqRbxWOPs4-4" edge="1">
          <mxGeometry width="50" height="50" relative="1" as="geometry">
            <mxPoint x="210" y="890" as="sourcePoint" />
            <mxPoint x="260" y="840" as="targetPoint" />
          </mxGeometry>
        </mxCell>
        <mxCell id="PciMP8UfImaqRbxWOPs4-62" value="" style="endArrow=none;html=1;rounded=0;entryX=0.5;entryY=1;entryDx=0;entryDy=0;exitX=0.5;exitY=0;exitDx=0;exitDy=0;startArrow=ERmandOne;startFill=0;" parent="1" source="PciMP8UfImaqRbxWOPs4-8" target="PciMP8UfImaqRbxWOPs4-58" edge="1">
          <mxGeometry width="50" height="50" relative="1" as="geometry">
            <mxPoint x="285" y="920" as="sourcePoint" />
            <mxPoint x="285" y="760" as="targetPoint" />
          </mxGeometry>
        </mxCell>
        <mxCell id="PciMP8UfImaqRbxWOPs4-58" value="have" style="rhombus;whiteSpace=wrap;html=1;" parent="1" vertex="1">
          <mxGeometry x="245" y="800" width="80" height="80" as="geometry" />
        </mxCell>
        <mxCell id="PciMP8UfImaqRbxWOPs4-63" value="P_Quantity" style="ellipse;whiteSpace=wrap;html=1;" parent="1" vertex="1">
          <mxGeometry x="50" y="490" width="120" height="80" as="geometry" />
        </mxCell>
        <mxCell id="PciMP8UfImaqRbxWOPs4-64" value="ProductName" style="ellipse;whiteSpace=wrap;html=1;" parent="1" vertex="1">
          <mxGeometry x="50" y="400" width="120" height="80" as="geometry" />
        </mxCell>
        <mxCell id="PciMP8UfImaqRbxWOPs4-65" value="&lt;u&gt;ProductID&lt;/u&gt;" style="ellipse;whiteSpace=wrap;html=1;" parent="1" vertex="1">
          <mxGeometry x="50" y="310" width="120" height="80" as="geometry" />
        </mxCell>
        <mxCell id="PciMP8UfImaqRbxWOPs4-66" value="" style="endArrow=none;html=1;rounded=0;entryX=0;entryY=0.5;entryDx=0;entryDy=0;exitX=1;exitY=0.5;exitDx=0;exitDy=0;" parent="1" source="PciMP8UfImaqRbxWOPs4-65" target="PciMP8UfImaqRbxWOPs4-10" edge="1">
          <mxGeometry width="50" height="50" relative="1" as="geometry">
            <mxPoint x="170" y="570" as="sourcePoint" />
            <mxPoint x="220" y="520" as="targetPoint" />
          </mxGeometry>
        </mxCell>
        <mxCell id="PciMP8UfImaqRbxWOPs4-67" value="" style="endArrow=none;html=1;rounded=0;entryX=0;entryY=0.5;entryDx=0;entryDy=0;exitX=1;exitY=0.5;exitDx=0;exitDy=0;" parent="1" source="PciMP8UfImaqRbxWOPs4-64" target="PciMP8UfImaqRbxWOPs4-10" edge="1">
          <mxGeometry width="50" height="50" relative="1" as="geometry">
            <mxPoint x="160" y="585" as="sourcePoint" />
            <mxPoint x="210" y="535" as="targetPoint" />
          </mxGeometry>
        </mxCell>
        <mxCell id="PciMP8UfImaqRbxWOPs4-68" value="" style="endArrow=none;html=1;rounded=0;entryX=0;entryY=0.5;entryDx=0;entryDy=0;exitX=1;exitY=0.5;exitDx=0;exitDy=0;" parent="1" source="PciMP8UfImaqRbxWOPs4-63" target="PciMP8UfImaqRbxWOPs4-10" edge="1">
          <mxGeometry width="50" height="50" relative="1" as="geometry">
            <mxPoint x="140" y="585" as="sourcePoint" />
            <mxPoint x="190" y="535" as="targetPoint" />
          </mxGeometry>
        </mxCell>
        <mxCell id="PciMP8UfImaqRbxWOPs4-69" value="&lt;u&gt;MaterialID&lt;/u&gt;" style="ellipse;whiteSpace=wrap;html=1;" parent="1" vertex="1">
          <mxGeometry x="770" y="-150" width="120" height="80" as="geometry" />
        </mxCell>
        <mxCell id="PciMP8UfImaqRbxWOPs4-70" value="RM_Quantity" style="ellipse;whiteSpace=wrap;html=1;" parent="1" vertex="1">
          <mxGeometry x="770" y="50" width="120" height="80" as="geometry" />
        </mxCell>
        <mxCell id="PciMP8UfImaqRbxWOPs4-71" value="MaterialName" style="ellipse;whiteSpace=wrap;html=1;" parent="1" vertex="1">
          <mxGeometry x="770" y="-50" width="120" height="80" as="geometry" />
        </mxCell>
        <mxCell id="PciMP8UfImaqRbxWOPs4-72" value="" style="endArrow=none;html=1;rounded=0;entryX=0;entryY=0.5;entryDx=0;entryDy=0;exitX=1;exitY=0.5;exitDx=0;exitDy=0;" parent="1" source="PciMP8UfImaqRbxWOPs4-12" target="PciMP8UfImaqRbxWOPs4-69" edge="1">
          <mxGeometry width="50" height="50" relative="1" as="geometry">
            <mxPoint x="670" y="30" as="sourcePoint" />
            <mxPoint x="720" y="-20" as="targetPoint" />
          </mxGeometry>
        </mxCell>
        <mxCell id="PciMP8UfImaqRbxWOPs4-73" value="" style="endArrow=none;html=1;rounded=0;entryX=0;entryY=0.5;entryDx=0;entryDy=0;exitX=1;exitY=0.5;exitDx=0;exitDy=0;" parent="1" source="PciMP8UfImaqRbxWOPs4-12" target="PciMP8UfImaqRbxWOPs4-71" edge="1">
          <mxGeometry width="50" height="50" relative="1" as="geometry">
            <mxPoint x="710" y="180" as="sourcePoint" />
            <mxPoint x="760" y="130" as="targetPoint" />
          </mxGeometry>
        </mxCell>
        <mxCell id="PciMP8UfImaqRbxWOPs4-74" value="" style="endArrow=none;html=1;rounded=0;entryX=0;entryY=0.5;entryDx=0;entryDy=0;exitX=1;exitY=0.5;exitDx=0;exitDy=0;" parent="1" source="PciMP8UfImaqRbxWOPs4-12" target="PciMP8UfImaqRbxWOPs4-70" edge="1">
          <mxGeometry width="50" height="50" relative="1" as="geometry">
            <mxPoint x="710" y="80" as="sourcePoint" />
            <mxPoint x="770.0000000000055" y="180" as="targetPoint" />
          </mxGeometry>
        </mxCell>
        <mxCell id="PciMP8UfImaqRbxWOPs4-75" value="ContactInfo" style="ellipse;whiteSpace=wrap;html=1;" parent="1" vertex="1">
          <mxGeometry x="-675" y="130" width="120" height="80" as="geometry" />
        </mxCell>
        <mxCell id="PciMP8UfImaqRbxWOPs4-76" value="SupplierName" style="ellipse;whiteSpace=wrap;html=1;" parent="1" vertex="1">
          <mxGeometry x="-675" y="30" width="120" height="80" as="geometry" />
        </mxCell>
        <mxCell id="PciMP8UfImaqRbxWOPs4-77" value="&lt;u&gt;SupplierID&lt;/u&gt;" style="ellipse;whiteSpace=wrap;html=1;" parent="1" vertex="1">
          <mxGeometry x="-675" y="-70" width="120" height="80" as="geometry" />
        </mxCell>
        <mxCell id="PciMP8UfImaqRbxWOPs4-78" value="" style="endArrow=none;html=1;rounded=0;entryX=0;entryY=0.5;entryDx=0;entryDy=0;exitX=1;exitY=0.5;exitDx=0;exitDy=0;" parent="1" source="PciMP8UfImaqRbxWOPs4-77" target="PciMP8UfImaqRbxWOPs4-11" edge="1">
          <mxGeometry width="50" height="50" relative="1" as="geometry">
            <mxPoint x="-795" y="120" as="sourcePoint" />
            <mxPoint x="-745" y="70" as="targetPoint" />
          </mxGeometry>
        </mxCell>
        <mxCell id="PciMP8UfImaqRbxWOPs4-79" value="" style="endArrow=none;html=1;rounded=0;entryX=0;entryY=0.5;entryDx=0;entryDy=0;exitX=1;exitY=0.5;exitDx=0;exitDy=0;" parent="1" source="PciMP8UfImaqRbxWOPs4-76" target="PciMP8UfImaqRbxWOPs4-11" edge="1">
          <mxGeometry width="50" height="50" relative="1" as="geometry">
            <mxPoint x="-665" y="130" as="sourcePoint" />
            <mxPoint x="-615" y="80" as="targetPoint" />
          </mxGeometry>
        </mxCell>
        <mxCell id="PciMP8UfImaqRbxWOPs4-80" value="" style="endArrow=none;html=1;rounded=0;entryX=0;entryY=0.5;entryDx=0;entryDy=0;exitX=1;exitY=0.5;exitDx=0;exitDy=0;" parent="1" source="PciMP8UfImaqRbxWOPs4-75" target="PciMP8UfImaqRbxWOPs4-11" edge="1">
          <mxGeometry width="50" height="50" relative="1" as="geometry">
            <mxPoint x="-575" y="150" as="sourcePoint" />
            <mxPoint x="-525" y="100" as="targetPoint" />
          </mxGeometry>
        </mxCell>
        <mxCell id="PciMP8UfImaqRbxWOPs4-81" value="Address" style="ellipse;whiteSpace=wrap;html=1;" parent="1" vertex="1">
          <mxGeometry x="750" y="1005" width="120" height="80" as="geometry" />
        </mxCell>
        <mxCell id="PciMP8UfImaqRbxWOPs4-82" value="CustomerName" style="ellipse;whiteSpace=wrap;html=1;" parent="1" vertex="1">
          <mxGeometry x="750" y="910" width="120" height="80" as="geometry" />
        </mxCell>
        <mxCell id="PciMP8UfImaqRbxWOPs4-83" value="&lt;u&gt;CustomerID&lt;/u&gt;" style="ellipse;whiteSpace=wrap;html=1;" parent="1" vertex="1">
          <mxGeometry x="750" y="820" width="120" height="80" as="geometry" />
        </mxCell>
        <mxCell id="PciMP8UfImaqRbxWOPs4-85" value="" style="endArrow=none;html=1;rounded=0;entryX=0;entryY=0.5;entryDx=0;entryDy=0;exitX=1;exitY=0.5;exitDx=0;exitDy=0;" parent="1" source="PciMP8UfImaqRbxWOPs4-13" target="PciMP8UfImaqRbxWOPs4-83" edge="1">
          <mxGeometry width="50" height="50" relative="1" as="geometry">
            <mxPoint x="610" y="990" as="sourcePoint" />
            <mxPoint x="660" y="940" as="targetPoint" />
          </mxGeometry>
        </mxCell>
        <mxCell id="PciMP8UfImaqRbxWOPs4-86" value="" style="endArrow=none;html=1;rounded=0;entryX=0;entryY=0.5;entryDx=0;entryDy=0;exitX=1;exitY=0.5;exitDx=0;exitDy=0;" parent="1" source="PciMP8UfImaqRbxWOPs4-13" target="PciMP8UfImaqRbxWOPs4-82" edge="1">
          <mxGeometry width="50" height="50" relative="1" as="geometry">
            <mxPoint x="660" y="990" as="sourcePoint" />
            <mxPoint x="710" y="940" as="targetPoint" />
          </mxGeometry>
        </mxCell>
        <mxCell id="PciMP8UfImaqRbxWOPs4-87" value="" style="endArrow=none;html=1;rounded=0;entryX=0;entryY=0.5;entryDx=0;entryDy=0;exitX=1;exitY=0.5;exitDx=0;exitDy=0;" parent="1" source="PciMP8UfImaqRbxWOPs4-13" target="PciMP8UfImaqRbxWOPs4-81" edge="1">
          <mxGeometry width="50" height="50" relative="1" as="geometry">
            <mxPoint x="700" y="950" as="sourcePoint" />
            <mxPoint x="710" y="940" as="targetPoint" />
          </mxGeometry>
        </mxCell>
        <mxCell id="PciMP8UfImaqRbxWOPs4-88" value="Version" style="ellipse;whiteSpace=wrap;html=1;" parent="1" vertex="1">
          <mxGeometry x="760" y="560" width="120" height="80" as="geometry" />
        </mxCell>
        <mxCell id="PciMP8UfImaqRbxWOPs4-89" value="ProductID" style="ellipse;whiteSpace=wrap;html=1;" parent="1" vertex="1">
          <mxGeometry x="760" y="460" width="120" height="80" as="geometry" />
        </mxCell>
        <mxCell id="PciMP8UfImaqRbxWOPs4-90" value="&lt;u&gt;FormulaID&lt;/u&gt;" style="ellipse;whiteSpace=wrap;html=1;" parent="1" vertex="1">
          <mxGeometry x="760" y="360" width="120" height="80" as="geometry" />
        </mxCell>
        <mxCell id="PciMP8UfImaqRbxWOPs4-91" value="" style="endArrow=none;html=1;rounded=0;entryX=0;entryY=0.5;entryDx=0;entryDy=0;exitX=1;exitY=0.5;exitDx=0;exitDy=0;" parent="1" source="PciMP8UfImaqRbxWOPs4-1" target="PciMP8UfImaqRbxWOPs4-90" edge="1">
          <mxGeometry width="50" height="50" relative="1" as="geometry">
            <mxPoint x="690" y="550" as="sourcePoint" />
            <mxPoint x="740" y="500" as="targetPoint" />
          </mxGeometry>
        </mxCell>
        <mxCell id="PciMP8UfImaqRbxWOPs4-92" value="" style="endArrow=none;html=1;rounded=0;entryX=0;entryY=0.5;entryDx=0;entryDy=0;exitX=1;exitY=0.5;exitDx=0;exitDy=0;" parent="1" source="PciMP8UfImaqRbxWOPs4-1" target="PciMP8UfImaqRbxWOPs4-89" edge="1">
          <mxGeometry width="50" height="50" relative="1" as="geometry">
            <mxPoint x="690" y="550" as="sourcePoint" />
            <mxPoint x="740" y="500" as="targetPoint" />
          </mxGeometry>
        </mxCell>
        <mxCell id="PciMP8UfImaqRbxWOPs4-93" value="" style="endArrow=none;html=1;rounded=0;entryX=0;entryY=0.5;entryDx=0;entryDy=0;exitX=1;exitY=0.5;exitDx=0;exitDy=0;" parent="1" source="PciMP8UfImaqRbxWOPs4-1" target="PciMP8UfImaqRbxWOPs4-88" edge="1">
          <mxGeometry width="50" height="50" relative="1" as="geometry">
            <mxPoint x="690" y="550" as="sourcePoint" />
            <mxPoint x="740" y="500" as="targetPoint" />
          </mxGeometry>
        </mxCell>
        <mxCell id="PciMP8UfImaqRbxWOPs4-94" value="ProductID" style="ellipse;whiteSpace=wrap;html=1;" parent="1" vertex="1">
          <mxGeometry x="-290" y="150" width="120" height="80" as="geometry" />
        </mxCell>
        <mxCell id="PciMP8UfImaqRbxWOPs4-95" value="QuantityProduced" style="ellipse;whiteSpace=wrap;html=1;" parent="1" vertex="1">
          <mxGeometry x="-145" y="150" width="120" height="80" as="geometry" />
        </mxCell>
        <mxCell id="PciMP8UfImaqRbxWOPs4-96" value="ManufactureDate" style="ellipse;whiteSpace=wrap;html=1;" parent="1" vertex="1">
          <mxGeometry y="150" width="120" height="80" as="geometry" />
        </mxCell>
        <mxCell id="PciMP8UfImaqRbxWOPs4-97" value="" style="endArrow=none;html=1;rounded=0;entryX=0.5;entryY=1;entryDx=0;entryDy=0;exitX=0.5;exitY=0;exitDx=0;exitDy=0;" parent="1" source="PciMP8UfImaqRbxWOPs4-7" target="PciMP8UfImaqRbxWOPs4-94" edge="1">
          <mxGeometry width="50" height="50" relative="1" as="geometry">
            <mxPoint x="-120" y="360" as="sourcePoint" />
            <mxPoint x="-70" y="310" as="targetPoint" />
          </mxGeometry>
        </mxCell>
        <mxCell id="PciMP8UfImaqRbxWOPs4-98" value="" style="endArrow=none;html=1;rounded=0;entryX=0.5;entryY=0;entryDx=0;entryDy=0;exitX=0.5;exitY=1;exitDx=0;exitDy=0;" parent="1" source="PciMP8UfImaqRbxWOPs4-95" target="PciMP8UfImaqRbxWOPs4-7" edge="1">
          <mxGeometry width="50" height="50" relative="1" as="geometry">
            <mxPoint x="-200" y="210" as="sourcePoint" />
            <mxPoint x="-150" y="160" as="targetPoint" />
          </mxGeometry>
        </mxCell>
        <mxCell id="PciMP8UfImaqRbxWOPs4-99" value="" style="endArrow=none;html=1;rounded=0;entryX=0.5;entryY=1;entryDx=0;entryDy=0;exitX=0.5;exitY=0;exitDx=0;exitDy=0;" parent="1" source="PciMP8UfImaqRbxWOPs4-7" target="PciMP8UfImaqRbxWOPs4-96" edge="1">
          <mxGeometry width="50" height="50" relative="1" as="geometry">
            <mxPoint x="-60" y="210" as="sourcePoint" />
            <mxPoint x="-10" y="160" as="targetPoint" />
          </mxGeometry>
        </mxCell>
        <mxCell id="PciMP8UfImaqRbxWOPs4-100" value="&lt;u&gt;BatchID&lt;/u&gt;" style="ellipse;whiteSpace=wrap;html=1;" parent="1" vertex="1">
          <mxGeometry x="-435" y="150" width="120" height="80" as="geometry" />
        </mxCell>
        <mxCell id="PciMP8UfImaqRbxWOPs4-101" value="PB_Status" style="ellipse;whiteSpace=wrap;html=1;" parent="1" vertex="1">
          <mxGeometry x="150" y="150" width="120" height="80" as="geometry" />
        </mxCell>
        <mxCell id="PciMP8UfImaqRbxWOPs4-102" value="" style="endArrow=none;html=1;rounded=0;entryX=0.5;entryY=1;entryDx=0;entryDy=0;exitX=0.5;exitY=0;exitDx=0;exitDy=0;" parent="1" source="PciMP8UfImaqRbxWOPs4-7" target="PciMP8UfImaqRbxWOPs4-100" edge="1">
          <mxGeometry width="50" height="50" relative="1" as="geometry">
            <mxPoint x="-280" y="310" as="sourcePoint" />
            <mxPoint x="-230" y="260" as="targetPoint" />
          </mxGeometry>
        </mxCell>
        <mxCell id="PciMP8UfImaqRbxWOPs4-103" value="" style="endArrow=none;html=1;rounded=0;entryX=0.5;entryY=1;entryDx=0;entryDy=0;exitX=0.5;exitY=0;exitDx=0;exitDy=0;" parent="1" source="PciMP8UfImaqRbxWOPs4-7" target="PciMP8UfImaqRbxWOPs4-101" edge="1">
          <mxGeometry width="50" height="50" relative="1" as="geometry">
            <mxPoint x="90" y="280" as="sourcePoint" />
            <mxPoint x="140" y="230" as="targetPoint" />
          </mxGeometry>
        </mxCell>
        <mxCell id="PciMP8UfImaqRbxWOPs4-104" value="StandardCriteria" style="ellipse;whiteSpace=wrap;html=1;" parent="1" vertex="1">
          <mxGeometry x="-690" y="720" width="120" height="80" as="geometry" />
        </mxCell>
        <mxCell id="PciMP8UfImaqRbxWOPs4-105" value="&lt;u&gt;TestID&lt;/u&gt;" style="ellipse;whiteSpace=wrap;html=1;" parent="1" vertex="1">
          <mxGeometry x="-690" y="540" width="120" height="80" as="geometry" />
        </mxCell>
        <mxCell id="PciMP8UfImaqRbxWOPs4-106" value="TestName" style="ellipse;whiteSpace=wrap;html=1;" parent="1" vertex="1">
          <mxGeometry x="-690" y="630" width="120" height="80" as="geometry" />
        </mxCell>
        <mxCell id="PciMP8UfImaqRbxWOPs4-107" value="" style="endArrow=none;html=1;rounded=0;entryX=1;entryY=0.5;entryDx=0;entryDy=0;exitX=0;exitY=0.5;exitDx=0;exitDy=0;" parent="1" source="PciMP8UfImaqRbxWOPs4-6" target="PciMP8UfImaqRbxWOPs4-105" edge="1">
          <mxGeometry width="50" height="50" relative="1" as="geometry">
            <mxPoint x="-410" y="690" as="sourcePoint" />
            <mxPoint x="-360" y="640" as="targetPoint" />
          </mxGeometry>
        </mxCell>
        <mxCell id="PciMP8UfImaqRbxWOPs4-108" value="" style="endArrow=none;html=1;rounded=0;entryX=1;entryY=0.5;entryDx=0;entryDy=0;exitX=0;exitY=0.5;exitDx=0;exitDy=0;" parent="1" source="PciMP8UfImaqRbxWOPs4-6" target="PciMP8UfImaqRbxWOPs4-106" edge="1">
          <mxGeometry width="50" height="50" relative="1" as="geometry">
            <mxPoint x="-410" y="690" as="sourcePoint" />
            <mxPoint x="-360" y="640" as="targetPoint" />
          </mxGeometry>
        </mxCell>
        <mxCell id="PciMP8UfImaqRbxWOPs4-109" value="" style="endArrow=none;html=1;rounded=0;entryX=1;entryY=0.5;entryDx=0;entryDy=0;exitX=0;exitY=0.5;exitDx=0;exitDy=0;" parent="1" source="PciMP8UfImaqRbxWOPs4-6" target="PciMP8UfImaqRbxWOPs4-104" edge="1">
          <mxGeometry width="50" height="50" relative="1" as="geometry">
            <mxPoint x="-410" y="690" as="sourcePoint" />
            <mxPoint x="-360" y="640" as="targetPoint" />
          </mxGeometry>
        </mxCell>
        <mxCell id="PciMP8UfImaqRbxWOPs4-110" value="&lt;u&gt;ResultID&lt;/u&gt;" style="ellipse;whiteSpace=wrap;html=1;" parent="1" vertex="1">
          <mxGeometry x="-390" y="350" width="120" height="80" as="geometry" />
        </mxCell>
        <mxCell id="PciMP8UfImaqRbxWOPs4-111" value="BatchID" style="ellipse;whiteSpace=wrap;html=1;" parent="1" vertex="1">
          <mxGeometry x="-245" y="350" width="120" height="80" as="geometry" />
        </mxCell>
        <mxCell id="PciMP8UfImaqRbxWOPs4-112" value="TestID" style="ellipse;whiteSpace=wrap;html=1;" parent="1" vertex="1">
          <mxGeometry x="-390" y="560" width="120" height="80" as="geometry" />
        </mxCell>
        <mxCell id="PciMP8UfImaqRbxWOPs4-113" value="PassFail" style="ellipse;whiteSpace=wrap;html=1;" parent="1" vertex="1">
          <mxGeometry x="-245" y="560" width="120" height="80" as="geometry" />
        </mxCell>
        <mxCell id="PciMP8UfImaqRbxWOPs4-114" value="" style="endArrow=none;html=1;rounded=0;entryX=0.5;entryY=1;entryDx=0;entryDy=0;exitX=0.5;exitY=0;exitDx=0;exitDy=0;" parent="1" source="PciMP8UfImaqRbxWOPs4-112" target="PciMP8UfImaqRbxWOPs4-2" edge="1">
          <mxGeometry width="50" height="50" relative="1" as="geometry">
            <mxPoint x="-180" y="610" as="sourcePoint" />
            <mxPoint x="-130" y="560" as="targetPoint" />
          </mxGeometry>
        </mxCell>
        <mxCell id="PciMP8UfImaqRbxWOPs4-115" value="" style="endArrow=none;html=1;rounded=0;entryX=0.5;entryY=1;entryDx=0;entryDy=0;exitX=0.5;exitY=0;exitDx=0;exitDy=0;" parent="1" source="PciMP8UfImaqRbxWOPs4-113" target="PciMP8UfImaqRbxWOPs4-2" edge="1">
          <mxGeometry width="50" height="50" relative="1" as="geometry">
            <mxPoint x="-180" y="610" as="sourcePoint" />
            <mxPoint x="-130" y="560" as="targetPoint" />
          </mxGeometry>
        </mxCell>
        <mxCell id="PciMP8UfImaqRbxWOPs4-116" value="" style="endArrow=none;html=1;rounded=0;entryX=0.5;entryY=1;entryDx=0;entryDy=0;exitX=0.5;exitY=0;exitDx=0;exitDy=0;" parent="1" source="PciMP8UfImaqRbxWOPs4-2" target="PciMP8UfImaqRbxWOPs4-110" edge="1">
          <mxGeometry width="50" height="50" relative="1" as="geometry">
            <mxPoint x="-200" y="530" as="sourcePoint" />
            <mxPoint x="-150" y="480" as="targetPoint" />
          </mxGeometry>
        </mxCell>
        <mxCell id="PciMP8UfImaqRbxWOPs4-117" value="" style="endArrow=none;html=1;rounded=0;entryX=0.5;entryY=1;entryDx=0;entryDy=0;exitX=0.5;exitY=0;exitDx=0;exitDy=0;" parent="1" source="PciMP8UfImaqRbxWOPs4-2" target="PciMP8UfImaqRbxWOPs4-111" edge="1">
          <mxGeometry width="50" height="50" relative="1" as="geometry">
            <mxPoint x="-200" y="530" as="sourcePoint" />
            <mxPoint x="-150" y="480" as="targetPoint" />
          </mxGeometry>
        </mxCell>
        <mxCell id="PciMP8UfImaqRbxWOPs4-119" value="SupplierID" style="ellipse;whiteSpace=wrap;html=1;" parent="1" vertex="1">
          <mxGeometry x="-230" y="-200" width="120" height="80" as="geometry" />
        </mxCell>
        <mxCell id="PciMP8UfImaqRbxWOPs4-120" value="PO_Date" style="ellipse;whiteSpace=wrap;html=1;" parent="1" vertex="1">
          <mxGeometry x="-120" y="-140" width="120" height="80" as="geometry" />
        </mxCell>
        <mxCell id="PciMP8UfImaqRbxWOPs4-121" value="PO_Status" style="ellipse;whiteSpace=wrap;html=1;" parent="1" vertex="1">
          <mxGeometry x="-35" y="-220" width="120" height="80" as="geometry" />
        </mxCell>
        <mxCell id="PciMP8UfImaqRbxWOPs4-122" value="&lt;u&gt;PO_ID&lt;/u&gt;" style="ellipse;whiteSpace=wrap;html=1;" parent="1" vertex="1">
          <mxGeometry x="-245" y="-90" width="120" height="80" as="geometry" />
        </mxCell>
        <mxCell id="PciMP8UfImaqRbxWOPs4-123" value="" style="endArrow=none;html=1;rounded=0;entryX=0.5;entryY=1;entryDx=0;entryDy=0;exitX=0.5;exitY=0;exitDx=0;exitDy=0;" parent="1" source="PciMP8UfImaqRbxWOPs4-9" target="PciMP8UfImaqRbxWOPs4-122" edge="1">
          <mxGeometry width="50" height="50" relative="1" as="geometry">
            <mxPoint x="-140" y="50" as="sourcePoint" />
            <mxPoint x="-90" as="targetPoint" />
          </mxGeometry>
        </mxCell>
        <mxCell id="PciMP8UfImaqRbxWOPs4-124" value="" style="endArrow=none;html=1;rounded=0;entryX=0.5;entryY=1;entryDx=0;entryDy=0;exitX=0.5;exitY=0;exitDx=0;exitDy=0;" parent="1" source="PciMP8UfImaqRbxWOPs4-9" target="PciMP8UfImaqRbxWOPs4-120" edge="1">
          <mxGeometry width="50" height="50" relative="1" as="geometry">
            <mxPoint x="-140" y="50" as="sourcePoint" />
            <mxPoint x="-90" as="targetPoint" />
          </mxGeometry>
        </mxCell>
        <mxCell id="PciMP8UfImaqRbxWOPs4-125" value="" style="endArrow=none;html=1;rounded=0;entryX=0.5;entryY=1;entryDx=0;entryDy=0;exitX=0.5;exitY=0;exitDx=0;exitDy=0;" parent="1" source="PciMP8UfImaqRbxWOPs4-9" target="PciMP8UfImaqRbxWOPs4-119" edge="1">
          <mxGeometry width="50" height="50" relative="1" as="geometry">
            <mxPoint x="-140" y="50" as="sourcePoint" />
            <mxPoint x="-90" as="targetPoint" />
          </mxGeometry>
        </mxCell>
        <mxCell id="PciMP8UfImaqRbxWOPs4-126" value="" style="endArrow=none;html=1;rounded=0;entryX=0.5;entryY=1;entryDx=0;entryDy=0;exitX=0.5;exitY=0;exitDx=0;exitDy=0;" parent="1" source="PciMP8UfImaqRbxWOPs4-9" target="PciMP8UfImaqRbxWOPs4-121" edge="1">
          <mxGeometry width="50" height="50" relative="1" as="geometry">
            <mxPoint x="-140" y="50" as="sourcePoint" />
            <mxPoint x="-90" as="targetPoint" />
          </mxGeometry>
        </mxCell>
        <mxCell id="PciMP8UfImaqRbxWOPs4-127" value="SO_Status" style="ellipse;whiteSpace=wrap;html=1;" parent="1" vertex="1">
          <mxGeometry x="425" y="1020" width="120" height="80" as="geometry" />
        </mxCell>
        <mxCell id="PciMP8UfImaqRbxWOPs4-128" value="SO_Date" style="ellipse;whiteSpace=wrap;html=1;" parent="1" vertex="1">
          <mxGeometry x="294" y="1020" width="120" height="80" as="geometry" />
        </mxCell>
        <mxCell id="PciMP8UfImaqRbxWOPs4-129" value="CustomerID" style="ellipse;whiteSpace=wrap;html=1;" parent="1" vertex="1">
          <mxGeometry x="160" y="1020" width="120" height="80" as="geometry" />
        </mxCell>
        <mxCell id="PciMP8UfImaqRbxWOPs4-130" value="&lt;u&gt;OrderID&lt;/u&gt;" style="ellipse;whiteSpace=wrap;html=1;" parent="1" vertex="1">
          <mxGeometry x="30" y="1020" width="120" height="80" as="geometry" />
        </mxCell>
        <mxCell id="PciMP8UfImaqRbxWOPs4-131" value="" style="endArrow=none;html=1;rounded=0;entryX=0.5;entryY=1;entryDx=0;entryDy=0;exitX=0.5;exitY=0;exitDx=0;exitDy=0;" parent="1" source="PciMP8UfImaqRbxWOPs4-130" target="PciMP8UfImaqRbxWOPs4-8" edge="1">
          <mxGeometry width="50" height="50" relative="1" as="geometry">
            <mxPoint x="350" y="1000" as="sourcePoint" />
            <mxPoint x="400" y="950" as="targetPoint" />
          </mxGeometry>
        </mxCell>
        <mxCell id="PciMP8UfImaqRbxWOPs4-132" value="" style="endArrow=none;html=1;rounded=0;entryX=0.5;entryY=1;entryDx=0;entryDy=0;exitX=0.5;exitY=0;exitDx=0;exitDy=0;" parent="1" source="PciMP8UfImaqRbxWOPs4-129" target="PciMP8UfImaqRbxWOPs4-8" edge="1">
          <mxGeometry width="50" height="50" relative="1" as="geometry">
            <mxPoint x="350" y="1000" as="sourcePoint" />
            <mxPoint x="400" y="950" as="targetPoint" />
          </mxGeometry>
        </mxCell>
        <mxCell id="PciMP8UfImaqRbxWOPs4-133" value="" style="endArrow=none;html=1;rounded=0;entryX=0.5;entryY=1;entryDx=0;entryDy=0;exitX=0.5;exitY=0;exitDx=0;exitDy=0;" parent="1" source="PciMP8UfImaqRbxWOPs4-128" target="PciMP8UfImaqRbxWOPs4-8" edge="1">
          <mxGeometry width="50" height="50" relative="1" as="geometry">
            <mxPoint x="350" y="1000" as="sourcePoint" />
            <mxPoint x="400" y="950" as="targetPoint" />
          </mxGeometry>
        </mxCell>
        <mxCell id="PciMP8UfImaqRbxWOPs4-134" value="" style="endArrow=none;html=1;rounded=0;entryX=0.5;entryY=1;entryDx=0;entryDy=0;exitX=0.5;exitY=0;exitDx=0;exitDy=0;" parent="1" source="PciMP8UfImaqRbxWOPs4-127" target="PciMP8UfImaqRbxWOPs4-8" edge="1">
          <mxGeometry width="50" height="50" relative="1" as="geometry">
            <mxPoint x="350" y="1000" as="sourcePoint" />
            <mxPoint x="400" y="950" as="targetPoint" />
          </mxGeometry>
        </mxCell>
        <mxCell id="PciMP8UfImaqRbxWOPs4-135" value="&lt;u&gt;FormulaID&lt;/u&gt;" style="ellipse;whiteSpace=wrap;html=1;" parent="1" vertex="1">
          <mxGeometry x="440" y="240" width="120" height="80" as="geometry" />
        </mxCell>
        <mxCell id="PciMP8UfImaqRbxWOPs4-136" value="&lt;u&gt;MaterialID&lt;/u&gt;" style="ellipse;whiteSpace=wrap;html=1;" parent="1" vertex="1">
          <mxGeometry x="440" y="150" width="120" height="80" as="geometry" />
        </mxCell>
        <mxCell id="PciMP8UfImaqRbxWOPs4-137" value="FD_Quantity" style="ellipse;whiteSpace=wrap;html=1;" parent="1" vertex="1">
          <mxGeometry x="440" y="330" width="120" height="80" as="geometry" />
        </mxCell>
        <mxCell id="PciMP8UfImaqRbxWOPs4-138" value="" style="endArrow=none;html=1;rounded=0;exitX=1;exitY=0.5;exitDx=0;exitDy=0;entryX=0;entryY=0.5;entryDx=0;entryDy=0;" parent="1" source="PciMP8UfImaqRbxWOPs4-136" target="PciMP8UfImaqRbxWOPs4-56" edge="1">
          <mxGeometry width="50" height="50" relative="1" as="geometry">
            <mxPoint x="560" y="250" as="sourcePoint" />
            <mxPoint x="610" y="200" as="targetPoint" />
          </mxGeometry>
        </mxCell>
        <mxCell id="PciMP8UfImaqRbxWOPs4-139" value="" style="endArrow=none;html=1;rounded=0;exitX=1;exitY=0.5;exitDx=0;exitDy=0;entryX=0;entryY=0.5;entryDx=0;entryDy=0;" parent="1" source="PciMP8UfImaqRbxWOPs4-135" target="PciMP8UfImaqRbxWOPs4-3" edge="1">
          <mxGeometry width="50" height="50" relative="1" as="geometry">
            <mxPoint x="570" y="280" as="sourcePoint" />
            <mxPoint x="620" y="230" as="targetPoint" />
          </mxGeometry>
        </mxCell>
        <mxCell id="PciMP8UfImaqRbxWOPs4-140" value="" style="endArrow=none;html=1;rounded=0;exitX=1;exitY=0.5;exitDx=0;exitDy=0;entryX=0;entryY=0.5;entryDx=0;entryDy=0;" parent="1" source="PciMP8UfImaqRbxWOPs4-137" target="PciMP8UfImaqRbxWOPs4-56" edge="1">
          <mxGeometry width="50" height="50" relative="1" as="geometry">
            <mxPoint x="590" y="360" as="sourcePoint" />
            <mxPoint x="640" y="310" as="targetPoint" />
          </mxGeometry>
        </mxCell>
        <mxCell id="PciMP8UfImaqRbxWOPs4-141" value="&lt;u&gt;PO_ID&lt;/u&gt;" style="ellipse;whiteSpace=wrap;html=1;" parent="1" vertex="1">
          <mxGeometry x="105" y="-80" width="120" height="80" as="geometry" />
        </mxCell>
        <mxCell id="PciMP8UfImaqRbxWOPs4-142" value="&lt;u&gt;MaterialID&lt;/u&gt;" style="ellipse;whiteSpace=wrap;html=1;" parent="1" vertex="1">
          <mxGeometry x="250" y="-80" width="120" height="80" as="geometry" />
        </mxCell>
        <mxCell id="PciMP8UfImaqRbxWOPs4-143" value="POD_Quantity" style="ellipse;whiteSpace=wrap;html=1;" parent="1" vertex="1">
          <mxGeometry x="400" y="-80" width="120" height="80" as="geometry" />
        </mxCell>
        <mxCell id="PciMP8UfImaqRbxWOPs4-144" value="" style="endArrow=none;html=1;rounded=0;entryX=0.468;entryY=0.989;entryDx=0;entryDy=0;entryPerimeter=0;exitX=0.5;exitY=0;exitDx=0;exitDy=0;" parent="1" source="PciMP8UfImaqRbxWOPs4-48" target="PciMP8UfImaqRbxWOPs4-141" edge="1">
          <mxGeometry width="50" height="50" relative="1" as="geometry">
            <mxPoint x="310" y="120" as="sourcePoint" />
            <mxPoint x="360" y="70" as="targetPoint" />
          </mxGeometry>
        </mxCell>
        <mxCell id="PciMP8UfImaqRbxWOPs4-145" value="" style="endArrow=none;html=1;rounded=0;entryX=0.5;entryY=1;entryDx=0;entryDy=0;" parent="1" target="PciMP8UfImaqRbxWOPs4-142" edge="1">
          <mxGeometry width="50" height="50" relative="1" as="geometry">
            <mxPoint x="310" y="40" as="sourcePoint" />
            <mxPoint x="360" y="70" as="targetPoint" />
          </mxGeometry>
        </mxCell>
        <mxCell id="PciMP8UfImaqRbxWOPs4-146" value="" style="endArrow=none;html=1;rounded=0;entryX=0.5;entryY=1;entryDx=0;entryDy=0;exitX=0.5;exitY=0;exitDx=0;exitDy=0;" parent="1" source="PciMP8UfImaqRbxWOPs4-5" target="PciMP8UfImaqRbxWOPs4-143" edge="1">
          <mxGeometry width="50" height="50" relative="1" as="geometry">
            <mxPoint x="310" y="120" as="sourcePoint" />
            <mxPoint x="360" y="70" as="targetPoint" />
          </mxGeometry>
        </mxCell>
        <mxCell id="PciMP8UfImaqRbxWOPs4-147" value="&lt;u&gt;ProductID&lt;/u&gt;" style="ellipse;whiteSpace=wrap;html=1;" parent="1" vertex="1">
          <mxGeometry x="395" y="690" width="120" height="80" as="geometry" />
        </mxCell>
        <mxCell id="PciMP8UfImaqRbxWOPs4-148" value="&lt;u&gt;OrderID&lt;/u&gt;" style="ellipse;whiteSpace=wrap;html=1;" parent="1" vertex="1">
          <mxGeometry x="395" y="600" width="120" height="80" as="geometry" />
        </mxCell>
        <mxCell id="PciMP8UfImaqRbxWOPs4-149" value="SOD_Quantity" style="ellipse;whiteSpace=wrap;html=1;" parent="1" vertex="1">
          <mxGeometry x="395" y="780" width="120" height="80" as="geometry" />
        </mxCell>
        <mxCell id="PciMP8UfImaqRbxWOPs4-150" value="" style="endArrow=none;html=1;rounded=0;exitX=0;exitY=0.5;exitDx=0;exitDy=0;entryX=1;entryY=0.5;entryDx=0;entryDy=0;" parent="1" source="PciMP8UfImaqRbxWOPs4-148" target="PciMP8UfImaqRbxWOPs4-4" edge="1">
          <mxGeometry width="50" height="50" relative="1" as="geometry">
            <mxPoint x="515" y="700" as="sourcePoint" />
            <mxPoint x="545" y="730" as="targetPoint" />
          </mxGeometry>
        </mxCell>
        <mxCell id="PciMP8UfImaqRbxWOPs4-151" value="" style="endArrow=none;html=1;rounded=0;exitX=0;exitY=0.5;exitDx=0;exitDy=0;entryX=1;entryY=0.5;entryDx=0;entryDy=0;" parent="1" source="PciMP8UfImaqRbxWOPs4-147" target="PciMP8UfImaqRbxWOPs4-4" edge="1">
          <mxGeometry width="50" height="50" relative="1" as="geometry">
            <mxPoint x="525" y="730" as="sourcePoint" />
            <mxPoint x="545" y="730" as="targetPoint" />
          </mxGeometry>
        </mxCell>
        <mxCell id="PciMP8UfImaqRbxWOPs4-152" value="" style="endArrow=none;html=1;rounded=0;exitX=0;exitY=0.5;exitDx=0;exitDy=0;entryX=1;entryY=0.5;entryDx=0;entryDy=0;" parent="1" source="PciMP8UfImaqRbxWOPs4-149" target="PciMP8UfImaqRbxWOPs4-4" edge="1">
          <mxGeometry width="50" height="50" relative="1" as="geometry">
            <mxPoint x="545" y="810" as="sourcePoint" />
            <mxPoint x="545" y="730" as="targetPoint" />
          </mxGeometry>
        </mxCell>
        <mxCell id="2euvNUT9wuK29ifQRNMc-1" value="Unit" style="ellipse;whiteSpace=wrap;html=1;" parent="1" vertex="1">
          <mxGeometry x="770" y="150" width="120" height="80" as="geometry" />
        </mxCell>
        <mxCell id="2euvNUT9wuK29ifQRNMc-2" value="" style="endArrow=none;html=1;rounded=0;entryX=1;entryY=0.5;entryDx=0;entryDy=0;exitX=0;exitY=0.5;exitDx=0;exitDy=0;" parent="1" source="2euvNUT9wuK29ifQRNMc-1" target="PciMP8UfImaqRbxWOPs4-12" edge="1">
          <mxGeometry width="50" height="50" relative="1" as="geometry">
            <mxPoint x="780" y="70" as="sourcePoint" />
            <mxPoint x="830" y="20" as="targetPoint" />
          </mxGeometry>
        </mxCell>
        <mxCell id="2euvNUT9wuK29ifQRNMc-3" value="P_Unit" style="ellipse;whiteSpace=wrap;html=1;" parent="1" vertex="1">
          <mxGeometry x="50" y="585" width="120" height="80" as="geometry" />
        </mxCell>
        <mxCell id="2euvNUT9wuK29ifQRNMc-4" value="" style="endArrow=none;html=1;rounded=0;entryX=0;entryY=0.5;entryDx=0;entryDy=0;exitX=1;exitY=0.5;exitDx=0;exitDy=0;" parent="1" source="2euvNUT9wuK29ifQRNMc-3" target="PciMP8UfImaqRbxWOPs4-10" edge="1">
          <mxGeometry width="50" height="50" relative="1" as="geometry">
            <mxPoint x="150" y="540" as="sourcePoint" />
            <mxPoint x="200" y="490" as="targetPoint" />
          </mxGeometry>
        </mxCell>
      </root>
    </mxGraphModel>
  </diagram>
</mxfile>
